<svg width="62" height="21" viewBox="0 0 62 21" fill="none" xmlns="http://www.w3.org/2000/svg">
<path d="M2.98633 0.319001C3.14099 0.261 3.28599 0.232 3.42133 0.232H6.93033C7.02699 0.232 7.10433 0.270667 7.16233 0.348C7.23966 0.406001 7.27833 0.483334 7.27833 0.580001V20.184C7.27833 20.2807 7.23966 20.3677 7.16233 20.445C7.10433 20.503 7.02699 20.532 6.93033 20.532H3.53733C3.44066 20.532 3.35366 20.503 3.27633 20.445C3.21833 20.3677 3.18933 20.2807 3.18933 20.184V4.35C3.18933 4.31133 3.16999 4.27267 3.13133 4.234C3.112 4.19533 3.08299 4.18567 3.04433 4.205L0.463328 4.698L0.347328 4.727C0.173328 4.727 0.0863281 4.62067 0.0863281 4.408L-0.000671824 1.914C-0.000671824 1.72067 0.0863282 1.58533 0.260328 1.508L2.98633 0.319001Z" fill="#F5821F"/>
<path d="M22.0547 20.764C20.7207 20.764 19.5511 20.532 18.5457 20.068C17.5404 19.5847 16.7574 18.9177 16.1967 18.067C15.6554 17.197 15.3847 16.2013 15.3847 15.08V14.326C15.3847 14.2293 15.4137 14.152 15.4717 14.094C15.5491 14.0167 15.6361 13.978 15.7327 13.978H19.0677C19.1644 13.978 19.2417 14.0167 19.2997 14.094C19.3771 14.152 19.4157 14.2293 19.4157 14.326V14.877C19.4157 15.5537 19.6671 16.124 20.1697 16.588C20.6724 17.0327 21.3491 17.255 22.1997 17.255C22.9537 17.255 23.5241 17.0617 23.9107 16.675C24.3167 16.2883 24.5197 15.7953 24.5197 15.196C24.5197 14.7513 24.3941 14.3743 24.1427 14.065C23.8914 13.7363 23.5337 13.4367 23.0697 13.166C22.6251 12.876 21.9291 12.4893 20.9817 12.006C19.8217 11.426 18.8744 10.8847 18.1397 10.382C17.4051 9.87933 16.7767 9.23167 16.2547 8.439C15.7327 7.64633 15.4717 6.68933 15.4717 5.568C15.4717 4.44667 15.7327 3.47033 16.2547 2.639C16.7961 1.78833 17.5501 1.14067 18.5167 0.696001C19.4834 0.232001 20.5854 1.37091e-06 21.8227 1.37091e-06C23.1181 1.37091e-06 24.2684 0.251334 25.2737 0.754C26.2791 1.23733 27.0621 1.92367 27.6227 2.813C28.1834 3.70233 28.4637 4.727 28.4637 5.887V6.467C28.4637 6.56367 28.4251 6.65067 28.3477 6.728C28.2897 6.786 28.2124 6.815 28.1157 6.815H24.7807C24.6841 6.815 24.5971 6.786 24.5197 6.728C24.4617 6.65067 24.4327 6.56367 24.4327 6.467V5.945C24.4327 5.249 24.1911 4.669 23.7077 4.205C23.2244 3.741 22.5671 3.509 21.7357 3.509C21.0397 3.509 20.4887 3.69267 20.0827 4.06C19.6961 4.408 19.5027 4.901 19.5027 5.539C19.5027 5.98367 19.6187 6.37033 19.8507 6.699C20.0827 7.02767 20.4404 7.34667 20.9237 7.656C21.4071 7.946 22.1417 8.33267 23.1277 8.816L23.7367 9.164C24.8581 9.78267 25.7281 10.324 26.3467 10.788C26.9847 11.2327 27.5164 11.803 27.9417 12.499C28.3671 13.195 28.5797 14.036 28.5797 15.022C28.5797 16.7813 27.9804 18.183 26.7817 19.227C25.6024 20.2517 24.0267 20.764 22.0547 20.764ZM42.1961 0.464001C42.2735 0.309334 42.4088 0.232 42.6021 0.232H45.9661C46.0628 0.232 46.1401 0.270667 46.1981 0.348C46.2755 0.406001 46.3141 0.483334 46.3141 0.580001V20.184C46.3141 20.2807 46.2755 20.3677 46.1981 20.445C46.1401 20.503 46.0628 20.532 45.9661 20.532H42.5731C42.4765 20.532 42.3895 20.503 42.3121 20.445C42.2541 20.3677 42.2251 20.2807 42.2251 20.184V7.308C42.2251 7.23067 42.2058 7.192 42.1671 7.192C42.1285 7.17267 42.0898 7.192 42.0511 7.25L39.3831 11.658C39.3058 11.8127 39.1705 11.89 38.9771 11.89H38.3101C38.1168 11.89 37.9815 11.8127 37.9041 11.658L35.2361 7.25C35.1975 7.192 35.1588 7.17267 35.1201 7.192C35.0815 7.192 35.0621 7.23067 35.0621 7.308V20.184C35.0621 20.2807 35.0235 20.3677 34.9461 20.445C34.8881 20.503 34.8108 20.532 34.7141 20.532H31.3211C31.2245 20.532 31.1375 20.503 31.0601 20.445C31.0021 20.3677 30.9731 20.2807 30.9731 20.184V0.580001C30.9731 0.483334 31.0021 0.406001 31.0601 0.348C31.1375 0.270667 31.2245 0.232 31.3211 0.232H34.6851C34.8785 0.232 35.0138 0.309334 35.0911 0.464001L38.5711 6.177C38.6291 6.293 38.6871 6.293 38.7451 6.177L42.1961 0.464001ZM61.6801 3.393C61.6801 3.48967 61.6414 3.57667 61.5641 3.654C61.5061 3.712 61.4287 3.741 61.3321 3.741H53.5601C53.4634 3.741 53.4151 3.78933 53.4151 3.886V8.41C53.4151 8.50667 53.4634 8.555 53.5601 8.555H58.4031C58.4997 8.555 58.5771 8.59367 58.6351 8.671C58.7124 8.729 58.7511 8.80633 58.7511 8.903V11.716C58.7511 11.8127 58.7124 11.8997 58.6351 11.977C58.5771 12.035 58.4997 12.064 58.4031 12.064H53.5601C53.4634 12.064 53.4151 12.1123 53.4151 12.209V16.878C53.4151 16.9747 53.4634 17.023 53.5601 17.023H61.3321C61.4287 17.023 61.5061 17.0617 61.5641 17.139C61.6414 17.197 61.6801 17.2743 61.6801 17.371V20.184C61.6801 20.2807 61.6414 20.3677 61.5641 20.445C61.5061 20.503 61.4287 20.532 61.3321 20.532H49.6741C49.5774 20.532 49.4904 20.503 49.4131 20.445C49.3551 20.3677 49.3261 20.2807 49.3261 20.184V0.580001C49.3261 0.483334 49.3551 0.406001 49.4131 0.348C49.4904 0.270667 49.5774 0.232 49.6741 0.232H61.3321C61.4287 0.232 61.5061 0.270667 61.5641 0.348C61.6414 0.406001 61.6801 0.483334 61.6801 0.580001V3.393Z" fill="#034EA2"/>
</svg>
